<svg xmlns="http://www.w3.org/2000/svg" xmlns:xlink="http://www.w3.org/1999/xlink" width="120" zoomAndPan="magnify" viewBox="0 0 90 89.999999" height="120" preserveAspectRatio="xMidYMid meet" version="1.0"><defs><clipPath id="9d867e30b9"><path d="M 45 0 C 20.148438 0 0 20.148438 0 45 C 0 69.851562 20.148438 90 45 90 C 69.851562 90 90 69.851562 90 45 C 90 20.148438 69.851562 0 45 0 Z M 45 0 " clip-rule="nonzero"/></clipPath><clipPath id="fc88d6e9f9"><path d="M 16.875 27.128906 L 76.125 27.128906 L 76.125 63 L 16.875 63 Z M 16.875 27.128906 " clip-rule="nonzero"/></clipPath></defs><g clip-path="url(#9d867e30b9)"><rect x="-9" width="108" fill="#19376d" y="-9" height="107.999999" fill-opacity="1"/></g><g clip-path="url(#fc88d6e9f9)"><path fill="#f5fbf9" d="M 30.863281 36.449219 L 42.039062 36.449219 L 42.039062 37.335938 L 31.886719 37.335938 L 31.886719 44.019531 L 41.433594 44.019531 L 41.433594 44.910156 L 31.886719 44.910156 L 31.886719 52.246094 L 42.152344 52.246094 L 42.152344 53.136719 L 30.863281 53.136719 Z M 43.039062 36.449219 L 44.226562 36.449219 L 49.488281 43.789062 L 54.863281 36.449219 L 62.175781 27.128906 L 50.160156 44.558594 L 56.355469 53.136719 L 55.121094 53.136719 L 49.488281 45.328125 L 43.828125 53.136719 L 42.621094 53.136719 L 48.855469 44.558594 Z M 56.796875 37.335938 L 56.796875 36.449219 L 69.53125 36.449219 L 69.53125 37.335938 L 63.664062 37.335938 L 63.664062 53.136719 L 62.640625 53.136719 L 62.640625 37.335938 Z M 16.886719 36.449219 L 18.164062 36.449219 L 35.820312 62.867188 L 28.523438 53.136719 L 17.957031 37.710938 L 17.910156 53.136719 L 16.886719 53.136719 Z M 69.425781 51.980469 C 69.21875 51.980469 69.058594 51.816406 69.058594 51.609375 C 69.058594 51.398438 69.21875 51.238281 69.425781 51.238281 C 69.636719 51.238281 69.792969 51.398438 69.792969 51.609375 C 69.792969 51.816406 69.636719 51.980469 69.425781 51.980469 Z M 70.433594 51 L 70.980469 51 C 70.988281 51.300781 71.207031 51.5 71.523438 51.5 C 71.878906 51.5 72.082031 51.285156 72.082031 50.882812 L 72.082031 48.339844 L 72.640625 48.339844 L 72.640625 50.886719 C 72.640625 51.609375 72.222656 52.023438 71.527344 52.023438 C 70.878906 52.023438 70.433594 51.621094 70.433594 51 Z M 73.371094 50.96875 L 73.921875 50.96875 C 73.96875 51.3125 74.304688 51.527344 74.785156 51.527344 C 75.234375 51.527344 75.5625 51.296875 75.5625 50.976562 C 75.5625 50.703125 75.351562 50.539062 74.875 50.425781 L 74.414062 50.3125 C 73.761719 50.160156 73.46875 49.847656 73.46875 49.320312 C 73.46875 48.675781 73.992188 48.25 74.773438 48.25 C 75.503906 48.25 76.039062 48.675781 76.070312 49.285156 L 75.527344 49.285156 C 75.476562 48.953125 75.183594 48.746094 74.765625 48.746094 C 74.324219 48.746094 74.03125 48.957031 74.03125 49.28125 C 74.03125 49.539062 74.222656 49.683594 74.691406 49.796875 L 75.085938 49.890625 C 75.824219 50.066406 76.128906 50.363281 76.128906 50.90625 C 76.128906 51.59375 75.59375 52.023438 74.742188 52.023438 C 73.945312 52.023438 73.410156 51.613281 73.371094 50.96875 Z M 73.371094 50.96875 " fill-opacity="1" fill-rule="nonzero"/></g></svg>