<svg xmlns="http://www.w3.org/2000/svg" xmlns:xlink="http://www.w3.org/1999/xlink" width="100" zoomAndPan="magnify" viewBox="0 0 75 74.999997" height="100" preserveAspectRatio="xMidYMid meet" version="1.0"><defs><g/></defs><rect x="-7.5" width="90" fill="#ffffff" y="-7.5" height="89.999996" fill-opacity="1"/><rect x="-7.5" width="90" fill="#ffffff" y="-7.5" height="89.999996" fill-opacity="1"/><g fill="#000000" fill-opacity="1"><g transform="translate(4.265705, 40.174983)"><g><path d="M 2.140625 -3.484375 C 2.054688 -3.710938 1.972656 -3.867188 1.890625 -3.953125 C 1.816406 -4.035156 1.75 -4.09375 1.6875 -4.125 L 1.6875 -4.203125 L 2.609375 -4.203125 L 2.609375 -4.125 C 2.515625 -4.09375 2.472656 -4.035156 2.484375 -3.953125 C 2.503906 -3.867188 2.5625 -3.71875 2.65625 -3.5 L 2.984375 -2.703125 L 3.265625 -3.484375 C 3.347656 -3.679688 3.378906 -3.832031 3.359375 -3.9375 C 3.347656 -4.039062 3.296875 -4.101562 3.203125 -4.125 L 3.203125 -4.203125 L 3.859375 -4.203125 L 3.859375 -4.125 C 3.773438 -4.09375 3.691406 -4.035156 3.609375 -3.953125 C 3.535156 -3.867188 3.457031 -3.710938 3.375 -3.484375 L 3.046875 -2.5625 L 3.859375 -0.609375 L 4.890625 -3.484375 C 5.035156 -3.867188 5.003906 -4.082031 4.796875 -4.125 L 4.796875 -4.203125 L 5.484375 -4.203125 L 5.484375 -4.125 C 5.398438 -4.09375 5.316406 -4.035156 5.234375 -3.953125 C 5.160156 -3.867188 5.082031 -3.710938 5 -3.484375 L 3.75 0 L 3.578125 0 L 2.734375 -2.03125 L 1.90625 0 L 1.75 0 L 0.421875 -3.484375 C 0.328125 -3.710938 0.242188 -3.867188 0.171875 -3.953125 C 0.109375 -4.035156 0.0390625 -4.09375 -0.03125 -4.125 L -0.03125 -4.203125 L 0.90625 -4.203125 L 0.90625 -4.125 C 0.8125 -4.09375 0.769531 -4.035156 0.78125 -3.953125 C 0.789062 -3.867188 0.84375 -3.710938 0.9375 -3.484375 L 2.046875 -0.59375 L 2.6875 -2.171875 Z M 2.140625 -3.484375 "/></g></g></g><g fill="#000000" fill-opacity="1"><g transform="translate(9.707731, 40.174983)"><g><path d="M 2.453125 0.0625 C 2.191406 0.0625 1.9375 0.0195312 1.6875 -0.0625 C 1.4375 -0.15625 1.207031 -0.289062 1 -0.46875 C 0.789062 -0.644531 0.625 -0.867188 0.5 -1.140625 C 0.375 -1.410156 0.3125 -1.734375 0.3125 -2.109375 C 0.3125 -2.515625 0.398438 -2.878906 0.578125 -3.203125 C 0.765625 -3.523438 1.015625 -3.78125 1.328125 -3.96875 C 1.648438 -4.15625 2.023438 -4.25 2.453125 -4.25 C 2.703125 -4.25 2.953125 -4.203125 3.203125 -4.109375 C 3.453125 -4.023438 3.679688 -3.894531 3.890625 -3.71875 C 4.097656 -3.539062 4.265625 -3.316406 4.390625 -3.046875 C 4.515625 -2.773438 4.578125 -2.453125 4.578125 -2.078125 C 4.578125 -1.710938 4.515625 -1.394531 4.390625 -1.125 C 4.265625 -0.851562 4.097656 -0.628906 3.890625 -0.453125 C 3.679688 -0.273438 3.453125 -0.144531 3.203125 -0.0625 C 2.953125 0.0195312 2.703125 0.0625 2.453125 0.0625 Z M 0.796875 -2.453125 C 0.804688 -2.148438 0.859375 -1.859375 0.953125 -1.578125 C 1.054688 -1.296875 1.191406 -1.039062 1.359375 -0.8125 C 1.523438 -0.59375 1.722656 -0.414062 1.953125 -0.28125 C 2.179688 -0.15625 2.429688 -0.09375 2.703125 -0.09375 C 3.023438 -0.09375 3.289062 -0.160156 3.5 -0.296875 C 3.707031 -0.441406 3.863281 -0.632812 3.96875 -0.875 C 4.070312 -1.113281 4.117188 -1.382812 4.109375 -1.6875 C 4.097656 -2 4.039062 -2.300781 3.9375 -2.59375 C 3.84375 -2.882812 3.707031 -3.140625 3.53125 -3.359375 C 3.363281 -3.585938 3.164062 -3.769531 2.9375 -3.90625 C 2.71875 -4.039062 2.472656 -4.109375 2.203125 -4.109375 C 1.898438 -4.109375 1.640625 -4.035156 1.421875 -3.890625 C 1.210938 -3.753906 1.050781 -3.5625 0.9375 -3.3125 C 0.832031 -3.070312 0.785156 -2.785156 0.796875 -2.453125 Z M 0.796875 -2.453125 "/></g></g></g><g fill="#000000" fill-opacity="1"><g transform="translate(14.585755, 40.174983)"><g><path d="M 3.46875 0.046875 L 0.640625 -3.625 L 0.640625 -1 C 0.640625 -0.769531 0.65625 -0.59375 0.6875 -0.46875 C 0.726562 -0.34375 0.78125 -0.25 0.84375 -0.1875 C 0.90625 -0.132812 0.976562 -0.0976562 1.0625 -0.078125 L 1.0625 0 L 0.3125 0 L 0.3125 -0.078125 C 0.40625 -0.109375 0.46875 -0.164062 0.5 -0.25 C 0.53125 -0.34375 0.546875 -0.515625 0.546875 -0.765625 L 0.546875 -3.4375 C 0.546875 -3.6875 0.523438 -3.851562 0.484375 -3.9375 C 0.441406 -4.03125 0.359375 -4.09375 0.234375 -4.125 L 0.234375 -4.203125 L 0.828125 -4.203125 L 3.453125 -0.796875 L 3.453125 -3.203125 C 3.453125 -3.429688 3.4375 -3.609375 3.40625 -3.734375 C 3.375 -3.859375 3.328125 -3.945312 3.265625 -4 C 3.203125 -4.0625 3.125 -4.101562 3.03125 -4.125 L 3.03125 -4.203125 L 3.796875 -4.203125 L 3.796875 -4.125 C 3.703125 -4.09375 3.632812 -4.03125 3.59375 -3.9375 C 3.5625 -3.851562 3.546875 -3.6875 3.546875 -3.4375 L 3.546875 0.046875 Z M 3.46875 0.046875 "/></g></g></g><g fill="#000000" fill-opacity="1"><g transform="translate(18.617773, 40.174983)"><g><path d="M 0.3125 0 L 0.3125 -0.078125 C 0.394531 -0.109375 0.453125 -0.164062 0.484375 -0.25 C 0.523438 -0.34375 0.546875 -0.515625 0.546875 -0.765625 L 0.546875 -3.4375 C 0.546875 -3.6875 0.523438 -3.851562 0.484375 -3.9375 C 0.453125 -4.03125 0.394531 -4.09375 0.3125 -4.125 L 0.3125 -4.203125 L 1.28125 -4.203125 L 1.28125 -4.125 C 1.1875 -4.09375 1.117188 -4.03125 1.078125 -3.9375 C 1.046875 -3.851562 1.03125 -3.6875 1.03125 -3.4375 L 1.03125 -0.765625 C 1.03125 -0.515625 1.046875 -0.34375 1.078125 -0.25 C 1.117188 -0.164062 1.1875 -0.109375 1.28125 -0.078125 L 1.28125 0 Z M 0.3125 0 "/></g></g></g><g fill="#000000" fill-opacity="1"><g transform="translate(20.201784, 40.174983)"><g><path d="M 1.1875 0 L 1.1875 -0.078125 C 1.28125 -0.109375 1.34375 -0.164062 1.375 -0.25 C 1.414062 -0.34375 1.4375 -0.515625 1.4375 -0.765625 L 1.4375 -4.109375 L 1.140625 -4.109375 C 0.867188 -4.109375 0.660156 -4.066406 0.515625 -3.984375 C 0.378906 -3.898438 0.257812 -3.75 0.15625 -3.53125 L 0.09375 -3.546875 L 0.125 -4.203125 L 3.21875 -4.203125 L 3.265625 -3.546875 L 3.1875 -3.53125 C 3.09375 -3.75 2.972656 -3.898438 2.828125 -3.984375 C 2.691406 -4.066406 2.488281 -4.109375 2.21875 -4.109375 L 1.9375 -4.109375 L 1.9375 -0.765625 C 1.9375 -0.515625 1.953125 -0.34375 1.984375 -0.25 C 2.015625 -0.164062 2.078125 -0.109375 2.171875 -0.078125 L 2.171875 0 Z M 1.1875 0 "/></g></g></g><g fill="#000000" fill-opacity="1"><g transform="translate(23.561799, 40.174983)"><g><path d="M -0.109375 0 L -0.109375 -0.078125 C -0.015625 -0.109375 0.0664062 -0.160156 0.140625 -0.234375 C 0.222656 -0.316406 0.3125 -0.472656 0.40625 -0.703125 L 1.578125 -3.640625 C 1.617188 -3.734375 1.617188 -3.828125 1.578125 -3.921875 L 1.515625 -4.046875 L 1.96875 -4.25 L 3.4375 -0.703125 C 3.53125 -0.472656 3.613281 -0.316406 3.6875 -0.234375 C 3.757812 -0.160156 3.832031 -0.109375 3.90625 -0.078125 L 3.90625 0 L 2.96875 0 L 2.96875 -0.078125 C 3.0625 -0.109375 3.097656 -0.160156 3.078125 -0.234375 C 3.066406 -0.316406 3.015625 -0.472656 2.921875 -0.703125 L 2.546875 -1.578125 L 0.859375 -1.578125 L 0.5 -0.703125 C 0.351562 -0.328125 0.378906 -0.117188 0.578125 -0.078125 L 0.578125 0 Z M 0.890625 -1.671875 L 2.515625 -1.671875 L 1.6875 -3.640625 Z M 0.890625 -1.671875 "/></g></g></g><g fill="#000000" fill-opacity="1"><g transform="translate(27.407812, 40.174983)"><g/></g></g><g fill="#000000" fill-opacity="1"><g transform="translate(28.667819, 40.174983)"><g><path d="M 2.453125 0.0625 C 2.191406 0.0625 1.9375 0.0195312 1.6875 -0.0625 C 1.4375 -0.15625 1.207031 -0.289062 1 -0.46875 C 0.789062 -0.644531 0.625 -0.867188 0.5 -1.140625 C 0.375 -1.410156 0.3125 -1.734375 0.3125 -2.109375 C 0.3125 -2.515625 0.398438 -2.878906 0.578125 -3.203125 C 0.765625 -3.523438 1.015625 -3.78125 1.328125 -3.96875 C 1.648438 -4.15625 2.023438 -4.25 2.453125 -4.25 C 2.703125 -4.25 2.953125 -4.203125 3.203125 -4.109375 C 3.453125 -4.023438 3.679688 -3.894531 3.890625 -3.71875 C 4.097656 -3.539062 4.265625 -3.316406 4.390625 -3.046875 C 4.515625 -2.773438 4.578125 -2.453125 4.578125 -2.078125 C 4.578125 -1.710938 4.515625 -1.394531 4.390625 -1.125 C 4.265625 -0.851562 4.097656 -0.628906 3.890625 -0.453125 C 3.679688 -0.273438 3.453125 -0.144531 3.203125 -0.0625 C 2.953125 0.0195312 2.703125 0.0625 2.453125 0.0625 Z M 0.796875 -2.453125 C 0.804688 -2.148438 0.859375 -1.859375 0.953125 -1.578125 C 1.054688 -1.296875 1.191406 -1.039062 1.359375 -0.8125 C 1.523438 -0.59375 1.722656 -0.414062 1.953125 -0.28125 C 2.179688 -0.15625 2.429688 -0.09375 2.703125 -0.09375 C 3.023438 -0.09375 3.289062 -0.160156 3.5 -0.296875 C 3.707031 -0.441406 3.863281 -0.632812 3.96875 -0.875 C 4.070312 -1.113281 4.117188 -1.382812 4.109375 -1.6875 C 4.097656 -2 4.039062 -2.300781 3.9375 -2.59375 C 3.84375 -2.882812 3.707031 -3.140625 3.53125 -3.359375 C 3.363281 -3.585938 3.164062 -3.769531 2.9375 -3.90625 C 2.71875 -4.039062 2.472656 -4.109375 2.203125 -4.109375 C 1.898438 -4.109375 1.640625 -4.035156 1.421875 -3.890625 C 1.210938 -3.753906 1.050781 -3.5625 0.9375 -3.3125 C 0.832031 -3.070312 0.785156 -2.785156 0.796875 -2.453125 Z M 0.796875 -2.453125 "/></g></g></g><g fill="#000000" fill-opacity="1"><g transform="translate(33.545843, 40.174983)"><g><path d="M 3.359375 0.046875 C 3.203125 0.046875 3.082031 0.0078125 3 -0.0625 C 2.914062 -0.144531 2.835938 -0.253906 2.765625 -0.390625 C 2.703125 -0.535156 2.625 -0.710938 2.53125 -0.921875 C 2.445312 -1.128906 2.375 -1.3125 2.3125 -1.46875 C 2.25 -1.625 2.179688 -1.753906 2.109375 -1.859375 C 2.046875 -1.960938 1.957031 -2.039062 1.84375 -2.09375 C 1.738281 -2.144531 1.597656 -2.171875 1.421875 -2.171875 L 1.03125 -2.171875 L 1.03125 -0.765625 C 1.03125 -0.515625 1.046875 -0.34375 1.078125 -0.25 C 1.117188 -0.164062 1.1875 -0.109375 1.28125 -0.078125 L 1.28125 0 L 0.3125 0 L 0.3125 -0.078125 C 0.394531 -0.109375 0.453125 -0.164062 0.484375 -0.25 C 0.523438 -0.34375 0.546875 -0.515625 0.546875 -0.765625 L 0.546875 -3.4375 C 0.546875 -3.6875 0.523438 -3.851562 0.484375 -3.9375 C 0.453125 -4.03125 0.394531 -4.09375 0.3125 -4.125 L 0.3125 -4.203125 L 1.484375 -4.203125 C 1.890625 -4.203125 2.207031 -4.160156 2.4375 -4.078125 C 2.664062 -3.992188 2.828125 -3.878906 2.921875 -3.734375 C 3.015625 -3.597656 3.0625 -3.441406 3.0625 -3.265625 C 3.0625 -2.984375 2.960938 -2.742188 2.765625 -2.546875 C 2.566406 -2.347656 2.269531 -2.226562 1.875 -2.1875 C 2.0625 -2.15625 2.210938 -2.109375 2.328125 -2.046875 C 2.441406 -1.992188 2.535156 -1.921875 2.609375 -1.828125 C 2.691406 -1.734375 2.757812 -1.613281 2.8125 -1.46875 C 2.875 -1.332031 2.941406 -1.171875 3.015625 -0.984375 C 3.109375 -0.742188 3.1875 -0.554688 3.25 -0.421875 C 3.320312 -0.296875 3.382812 -0.203125 3.4375 -0.140625 C 3.5 -0.0859375 3.5625 -0.0625 3.625 -0.0625 C 3.644531 -0.0625 3.660156 -0.0625 3.671875 -0.0625 C 3.691406 -0.0625 3.707031 -0.0664062 3.71875 -0.078125 L 3.71875 0 C 3.675781 0.0195312 3.617188 0.03125 3.546875 0.03125 C 3.484375 0.0390625 3.421875 0.046875 3.359375 0.046875 Z M 1.03125 -2.25 L 1.546875 -2.25 C 1.890625 -2.25 2.144531 -2.328125 2.3125 -2.484375 C 2.476562 -2.648438 2.5625 -2.863281 2.5625 -3.125 C 2.5625 -3.300781 2.519531 -3.460938 2.4375 -3.609375 C 2.351562 -3.765625 2.21875 -3.882812 2.03125 -3.96875 C 1.851562 -4.0625 1.613281 -4.109375 1.3125 -4.109375 C 1.269531 -4.109375 1.222656 -4.109375 1.171875 -4.109375 C 1.128906 -4.109375 1.082031 -4.101562 1.03125 -4.09375 Z M 1.03125 -2.25 "/></g></g></g><g fill="#000000" fill-opacity="1"><g transform="translate(37.217861, 40.174983)"><g><path d="M 0.3125 0 L 0.3125 -0.078125 C 0.394531 -0.109375 0.453125 -0.164062 0.484375 -0.25 C 0.523438 -0.34375 0.546875 -0.515625 0.546875 -0.765625 L 0.546875 -3.4375 C 0.546875 -3.6875 0.523438 -3.851562 0.484375 -3.9375 C 0.453125 -4.03125 0.394531 -4.09375 0.3125 -4.125 L 0.3125 -4.203125 L 1.28125 -4.203125 L 1.28125 -4.125 C 1.1875 -4.09375 1.117188 -4.03125 1.078125 -3.9375 C 1.046875 -3.851562 1.03125 -3.6875 1.03125 -3.4375 L 1.03125 -0.765625 C 1.03125 -0.515625 1.046875 -0.34375 1.078125 -0.25 C 1.117188 -0.164062 1.1875 -0.109375 1.28125 -0.078125 L 1.28125 0 Z M 0.3125 0 "/></g></g></g><g fill="#000000" fill-opacity="1"><g transform="translate(38.801872, 40.174983)"><g><path d="M 0.3125 0 L 0.3125 -0.078125 C 0.394531 -0.109375 0.453125 -0.164062 0.484375 -0.25 C 0.523438 -0.34375 0.546875 -0.515625 0.546875 -0.765625 L 0.546875 -3.4375 C 0.546875 -3.6875 0.523438 -3.851562 0.484375 -3.9375 C 0.453125 -4.03125 0.394531 -4.09375 0.3125 -4.125 L 0.3125 -4.203125 L 3.09375 -4.203125 L 3.15625 -3.421875 L 3.09375 -3.40625 C 2.988281 -3.664062 2.84375 -3.847656 2.65625 -3.953125 C 2.46875 -4.054688 2.222656 -4.109375 1.921875 -4.109375 L 1.03125 -4.109375 L 1.03125 -2.296875 L 1.8125 -2.296875 C 2.03125 -2.296875 2.203125 -2.304688 2.328125 -2.328125 C 2.460938 -2.359375 2.554688 -2.40625 2.609375 -2.46875 C 2.671875 -2.53125 2.710938 -2.609375 2.734375 -2.703125 L 2.8125 -2.703125 L 2.8125 -1.796875 L 2.734375 -1.796875 C 2.710938 -1.890625 2.671875 -1.960938 2.609375 -2.015625 C 2.554688 -2.078125 2.460938 -2.125 2.328125 -2.15625 C 2.203125 -2.1875 2.03125 -2.203125 1.8125 -2.203125 L 1.03125 -2.203125 L 1.03125 -0.359375 C 1.03125 -0.179688 1.125 -0.09375 1.3125 -0.09375 L 2.09375 -0.09375 C 2.375 -0.09375 2.609375 -0.140625 2.796875 -0.234375 C 2.984375 -0.335938 3.132812 -0.53125 3.25 -0.8125 L 3.3125 -0.796875 L 3.265625 0 Z M 0.3125 0 "/></g></g></g><g fill="#000000" fill-opacity="1"><g transform="translate(42.33589, 40.174983)"><g><path d="M 3.46875 0.046875 L 0.640625 -3.625 L 0.640625 -1 C 0.640625 -0.769531 0.65625 -0.59375 0.6875 -0.46875 C 0.726562 -0.34375 0.78125 -0.25 0.84375 -0.1875 C 0.90625 -0.132812 0.976562 -0.0976562 1.0625 -0.078125 L 1.0625 0 L 0.3125 0 L 0.3125 -0.078125 C 0.40625 -0.109375 0.46875 -0.164062 0.5 -0.25 C 0.53125 -0.34375 0.546875 -0.515625 0.546875 -0.765625 L 0.546875 -3.4375 C 0.546875 -3.6875 0.523438 -3.851562 0.484375 -3.9375 C 0.441406 -4.03125 0.359375 -4.09375 0.234375 -4.125 L 0.234375 -4.203125 L 0.828125 -4.203125 L 3.453125 -0.796875 L 3.453125 -3.203125 C 3.453125 -3.429688 3.4375 -3.609375 3.40625 -3.734375 C 3.375 -3.859375 3.328125 -3.945312 3.265625 -4 C 3.203125 -4.0625 3.125 -4.101562 3.03125 -4.125 L 3.03125 -4.203125 L 3.796875 -4.203125 L 3.796875 -4.125 C 3.703125 -4.09375 3.632812 -4.03125 3.59375 -3.9375 C 3.5625 -3.851562 3.546875 -3.6875 3.546875 -3.4375 L 3.546875 0.046875 Z M 3.46875 0.046875 "/></g></g></g><g fill="#000000" fill-opacity="1"><g transform="translate(46.367908, 40.174983)"><g><path d="M 1.1875 0 L 1.1875 -0.078125 C 1.28125 -0.109375 1.34375 -0.164062 1.375 -0.25 C 1.414062 -0.34375 1.4375 -0.515625 1.4375 -0.765625 L 1.4375 -4.109375 L 1.140625 -4.109375 C 0.867188 -4.109375 0.660156 -4.066406 0.515625 -3.984375 C 0.378906 -3.898438 0.257812 -3.75 0.15625 -3.53125 L 0.09375 -3.546875 L 0.125 -4.203125 L 3.21875 -4.203125 L 3.265625 -3.546875 L 3.1875 -3.53125 C 3.09375 -3.75 2.972656 -3.898438 2.828125 -3.984375 C 2.691406 -4.066406 2.488281 -4.109375 2.21875 -4.109375 L 1.9375 -4.109375 L 1.9375 -0.765625 C 1.9375 -0.515625 1.953125 -0.34375 1.984375 -0.25 C 2.015625 -0.164062 2.078125 -0.109375 2.171875 -0.078125 L 2.171875 0 Z M 1.1875 0 "/></g></g></g><g fill="#000000" fill-opacity="1"><g transform="translate(49.727923, 40.174983)"><g><path d="M -0.109375 0 L -0.109375 -0.078125 C -0.015625 -0.109375 0.0664062 -0.160156 0.140625 -0.234375 C 0.222656 -0.316406 0.3125 -0.472656 0.40625 -0.703125 L 1.578125 -3.640625 C 1.617188 -3.734375 1.617188 -3.828125 1.578125 -3.921875 L 1.515625 -4.046875 L 1.96875 -4.25 L 3.4375 -0.703125 C 3.53125 -0.472656 3.613281 -0.316406 3.6875 -0.234375 C 3.757812 -0.160156 3.832031 -0.109375 3.90625 -0.078125 L 3.90625 0 L 2.96875 0 L 2.96875 -0.078125 C 3.0625 -0.109375 3.097656 -0.160156 3.078125 -0.234375 C 3.066406 -0.316406 3.015625 -0.472656 2.921875 -0.703125 L 2.546875 -1.578125 L 0.859375 -1.578125 L 0.5 -0.703125 C 0.351562 -0.328125 0.378906 -0.117188 0.578125 -0.078125 L 0.578125 0 Z M 0.890625 -1.671875 L 2.515625 -1.671875 L 1.6875 -3.640625 Z M 0.890625 -1.671875 "/></g></g></g><g fill="#000000" fill-opacity="1"><g transform="translate(53.573937, 40.174983)"><g><path d="M 0.3125 0 L 0.3125 -0.078125 C 0.394531 -0.109375 0.453125 -0.164062 0.484375 -0.25 C 0.523438 -0.34375 0.546875 -0.515625 0.546875 -0.765625 L 0.546875 -3.4375 C 0.546875 -3.6875 0.523438 -3.851562 0.484375 -3.9375 C 0.453125 -4.03125 0.394531 -4.09375 0.3125 -4.125 L 0.3125 -4.203125 L 1.28125 -4.203125 L 1.28125 -4.125 C 1.1875 -4.09375 1.117188 -4.03125 1.078125 -3.9375 C 1.046875 -3.851562 1.03125 -3.6875 1.03125 -3.4375 L 1.03125 -0.359375 C 1.03125 -0.179688 1.125 -0.09375 1.3125 -0.09375 L 2.015625 -0.09375 C 2.304688 -0.09375 2.53125 -0.132812 2.6875 -0.21875 C 2.84375 -0.3125 2.972656 -0.46875 3.078125 -0.6875 L 3.140625 -0.671875 L 3.09375 0 Z M 0.3125 0 "/></g></g></g><g fill="#000000" fill-opacity="1"><g transform="translate(56.831955, 40.174983)"><g/></g></g><g fill="#000000" fill-opacity="1"><g transform="translate(58.091961, 40.174983)"><g><path d="M 2.453125 0.0625 C 2.191406 0.0625 1.9375 0.0195312 1.6875 -0.0625 C 1.4375 -0.15625 1.207031 -0.289062 1 -0.46875 C 0.789062 -0.644531 0.625 -0.867188 0.5 -1.140625 C 0.375 -1.410156 0.3125 -1.734375 0.3125 -2.109375 C 0.3125 -2.515625 0.398438 -2.878906 0.578125 -3.203125 C 0.765625 -3.523438 1.015625 -3.78125 1.328125 -3.96875 C 1.648438 -4.15625 2.023438 -4.25 2.453125 -4.25 C 2.703125 -4.25 2.953125 -4.203125 3.203125 -4.109375 C 3.453125 -4.023438 3.679688 -3.894531 3.890625 -3.71875 C 4.097656 -3.539062 4.265625 -3.316406 4.390625 -3.046875 C 4.515625 -2.773438 4.578125 -2.453125 4.578125 -2.078125 C 4.578125 -1.710938 4.515625 -1.394531 4.390625 -1.125 C 4.265625 -0.851562 4.097656 -0.628906 3.890625 -0.453125 C 3.679688 -0.273438 3.453125 -0.144531 3.203125 -0.0625 C 2.953125 0.0195312 2.703125 0.0625 2.453125 0.0625 Z M 0.796875 -2.453125 C 0.804688 -2.148438 0.859375 -1.859375 0.953125 -1.578125 C 1.054688 -1.296875 1.191406 -1.039062 1.359375 -0.8125 C 1.523438 -0.59375 1.722656 -0.414062 1.953125 -0.28125 C 2.179688 -0.15625 2.429688 -0.09375 2.703125 -0.09375 C 3.023438 -0.09375 3.289062 -0.160156 3.5 -0.296875 C 3.707031 -0.441406 3.863281 -0.632812 3.96875 -0.875 C 4.070312 -1.113281 4.117188 -1.382812 4.109375 -1.6875 C 4.097656 -2 4.039062 -2.300781 3.9375 -2.59375 C 3.84375 -2.882812 3.707031 -3.140625 3.53125 -3.359375 C 3.363281 -3.585938 3.164062 -3.769531 2.9375 -3.90625 C 2.71875 -4.039062 2.472656 -4.109375 2.203125 -4.109375 C 1.898438 -4.109375 1.640625 -4.035156 1.421875 -3.890625 C 1.210938 -3.753906 1.050781 -3.5625 0.9375 -3.3125 C 0.832031 -3.070312 0.785156 -2.785156 0.796875 -2.453125 Z M 0.796875 -2.453125 "/></g></g></g><g fill="#000000" fill-opacity="1"><g transform="translate(62.969985, 40.174983)"><g><path d="M 0.3125 0 L 0.3125 -0.078125 C 0.394531 -0.109375 0.453125 -0.164062 0.484375 -0.25 C 0.523438 -0.34375 0.546875 -0.515625 0.546875 -0.765625 L 0.546875 -3.4375 C 0.546875 -3.6875 0.523438 -3.851562 0.484375 -3.9375 C 0.453125 -4.03125 0.394531 -4.09375 0.3125 -4.125 L 0.3125 -4.203125 L 1.53125 -4.203125 C 1.9375 -4.203125 2.257812 -4.144531 2.5 -4.03125 C 2.738281 -3.914062 2.90625 -3.765625 3 -3.578125 C 3.101562 -3.398438 3.15625 -3.210938 3.15625 -3.015625 C 3.15625 -2.617188 3.007812 -2.289062 2.71875 -2.03125 C 2.4375 -1.78125 2.019531 -1.65625 1.46875 -1.65625 L 1.03125 -1.65625 L 1.03125 -0.765625 C 1.03125 -0.515625 1.046875 -0.34375 1.078125 -0.25 C 1.117188 -0.164062 1.1875 -0.109375 1.28125 -0.078125 L 1.28125 0 Z M 1.03125 -1.75 L 1.453125 -1.75 C 1.835938 -1.75 2.128906 -1.847656 2.328125 -2.046875 C 2.535156 -2.253906 2.640625 -2.53125 2.640625 -2.875 C 2.640625 -3.09375 2.59375 -3.296875 2.5 -3.484375 C 2.40625 -3.671875 2.257812 -3.820312 2.0625 -3.9375 C 1.875 -4.050781 1.617188 -4.109375 1.296875 -4.109375 C 1.253906 -4.109375 1.207031 -4.109375 1.15625 -4.109375 C 1.113281 -4.109375 1.070312 -4.101562 1.03125 -4.09375 Z M 1.03125 -1.75 "/></g></g></g><g fill="#000000" fill-opacity="1"><g transform="translate(66.282004, 40.174983)"><g><path d="M 2.578125 0.0625 C 2.117188 0.0625 1.71875 -0.0195312 1.375 -0.1875 C 1.039062 -0.351562 0.78125 -0.585938 0.59375 -0.890625 C 0.40625 -1.203125 0.3125 -1.578125 0.3125 -2.015625 C 0.3125 -2.335938 0.367188 -2.632812 0.484375 -2.90625 C 0.597656 -3.175781 0.757812 -3.410156 0.96875 -3.609375 C 1.1875 -3.804688 1.441406 -3.957031 1.734375 -4.0625 C 2.035156 -4.175781 2.363281 -4.234375 2.71875 -4.234375 C 2.882812 -4.234375 3.054688 -4.21875 3.234375 -4.1875 C 3.410156 -4.164062 3.570312 -4.128906 3.71875 -4.078125 C 3.875 -4.035156 3.988281 -3.988281 4.0625 -3.9375 L 4.09375 -3.234375 L 4.03125 -3.21875 C 3.914062 -3.488281 3.722656 -3.707031 3.453125 -3.875 C 3.179688 -4.039062 2.867188 -4.125 2.515625 -4.125 C 2.191406 -4.125 1.898438 -4.050781 1.640625 -3.90625 C 1.390625 -3.769531 1.1875 -3.5625 1.03125 -3.28125 C 0.882812 -3.007812 0.8125 -2.671875 0.8125 -2.265625 C 0.8125 -1.984375 0.851562 -1.710938 0.9375 -1.453125 C 1.019531 -1.191406 1.140625 -0.953125 1.296875 -0.734375 C 1.460938 -0.523438 1.664062 -0.359375 1.90625 -0.234375 C 2.15625 -0.117188 2.429688 -0.0625 2.734375 -0.0625 C 3.066406 -0.0625 3.351562 -0.144531 3.59375 -0.3125 C 3.832031 -0.476562 4.007812 -0.722656 4.125 -1.046875 L 4.1875 -1.046875 L 4.09375 -0.265625 C 3.957031 -0.191406 3.753906 -0.117188 3.484375 -0.046875 C 3.210938 0.0234375 2.910156 0.0625 2.578125 0.0625 Z M 2.578125 0.0625 "/></g></g></g></svg>