<svg xmlns="http://www.w3.org/2000/svg" xmlns:xlink="http://www.w3.org/1999/xlink" width="120" zoomAndPan="magnify" viewBox="0 0 90 89.999999" height="120" preserveAspectRatio="xMidYMid meet" version="1.0"><defs><clipPath id="3d017f87dd"><path d="M 40.5 23.25 L 76.5 23.25 L 76.5 59.25 L 40.5 59.25 Z M 40.5 23.25 " clip-rule="nonzero"/></clipPath></defs><path fill="#000000" d="M 29.90625 78.351562 C 25.453125 76.425781 21.535156 73.722656 18.152344 70.242188 C 14.832031 66.816406 12.238281 62.769531 10.367188 58.105469 C 0.00390625 32.265625 19.21875 1.925781 47.503906 4.335938 C 57.183594 5.160156 66.484375 9.996094 72.886719 18.421875 C 53.214844 8.75 26.875 11.796875 25.5625 37.738281 C 25.320312 42.574219 26.039062 46.792969 27.386719 50.449219 C 30.917969 60.03125 38.785156 65.757812 45.058594 68.667969 C 35.59375 69.21875 26.320312 61.265625 22.5625 51.898438 C 18.234375 41.109375 20.429688 27.0625 27.8125 18.058594 C 23.527344 21.355469 20.382812 25.789062 18.417969 30.816406 C 15.507812 38.277344 15.507812 47.519531 18.417969 54.980469 C 19.804688 58.605469 21.816406 61.835938 24.457031 64.679688 C 27.058594 67.460938 30.09375 69.632812 33.5625 71.195312 C 52.902344 79.992188 79.769531 57.984375 90 74.988281 C 70.742188 68.710938 52.308594 88.160156 29.90625 78.351562 " fill-opacity="1" fill-rule="nonzero"/><g clip-path="url(#3d017f87dd)"><path fill="#000000" d="M 76.5 41.246094 C 76.5 41.835938 76.472656 42.425781 76.414062 43.011719 C 76.355469 43.597656 76.269531 44.179688 76.15625 44.757812 C 76.039062 45.335938 75.898438 45.910156 75.726562 46.472656 C 75.554688 47.039062 75.355469 47.59375 75.128906 48.136719 C 74.90625 48.683594 74.652344 49.214844 74.375 49.734375 C 74.097656 50.253906 73.792969 50.761719 73.464844 51.25 C 73.136719 51.742188 72.789062 52.214844 72.414062 52.667969 C 72.039062 53.125 71.644531 53.5625 71.226562 53.980469 C 70.808594 54.394531 70.375 54.792969 69.917969 55.164062 C 69.460938 55.539062 68.988281 55.890625 68.5 56.21875 C 68.007812 56.546875 67.503906 56.847656 66.980469 57.125 C 66.460938 57.40625 65.929688 57.65625 65.386719 57.882812 C 64.839844 58.109375 64.285156 58.304688 63.722656 58.476562 C 63.15625 58.648438 62.585938 58.792969 62.007812 58.90625 C 61.429688 59.023438 60.847656 59.109375 60.257812 59.167969 C 59.671875 59.222656 59.082031 59.253906 58.492188 59.253906 C 57.902344 59.253906 57.316406 59.222656 56.730469 59.167969 C 56.140625 59.109375 55.558594 59.023438 54.980469 58.90625 C 54.402344 58.792969 53.832031 58.648438 53.265625 58.476562 C 52.703125 58.304688 52.148438 58.109375 51.601562 57.882812 C 51.058594 57.65625 50.527344 57.40625 50.003906 57.125 C 49.484375 56.847656 48.980469 56.546875 48.488281 56.21875 C 48 55.890625 47.527344 55.539062 47.070312 55.164062 C 46.613281 54.792969 46.179688 54.394531 45.761719 53.980469 C 45.34375 53.5625 44.949219 53.125 44.574219 52.667969 C 44.199219 52.214844 43.847656 51.742188 43.523438 51.25 C 43.195312 50.761719 42.890625 50.253906 42.613281 49.734375 C 42.335938 49.214844 42.082031 48.683594 41.859375 48.136719 C 41.632812 47.59375 41.433594 47.039062 41.261719 46.472656 C 41.089844 45.910156 40.949219 45.335938 40.832031 44.757812 C 40.71875 44.179688 40.632812 43.597656 40.574219 43.011719 C 40.515625 42.425781 40.488281 41.835938 40.488281 41.246094 C 40.488281 40.65625 40.515625 40.066406 40.574219 39.480469 C 40.632812 38.894531 40.71875 38.3125 40.832031 37.734375 C 40.949219 37.15625 41.089844 36.582031 41.261719 36.019531 C 41.433594 35.453125 41.632812 34.898438 41.859375 34.355469 C 42.082031 33.808594 42.335938 33.277344 42.613281 32.757812 C 42.890625 32.238281 43.195312 31.730469 43.523438 31.242188 C 43.847656 30.75 44.199219 30.277344 44.574219 29.824219 C 44.949219 29.367188 45.34375 28.929688 45.761719 28.511719 C 46.179688 28.097656 46.613281 27.699219 47.070312 27.328125 C 47.527344 26.953125 48 26.601562 48.488281 26.273438 C 48.980469 25.945312 49.484375 25.644531 50.003906 25.363281 C 50.527344 25.085938 51.058594 24.835938 51.601562 24.609375 C 52.148438 24.382812 52.703125 24.183594 53.265625 24.015625 C 53.832031 23.84375 54.402344 23.699219 54.980469 23.585938 C 55.558594 23.46875 56.140625 23.382812 56.730469 23.324219 C 57.316406 23.269531 57.902344 23.238281 58.492188 23.238281 C 59.082031 23.238281 59.671875 23.269531 60.257812 23.324219 C 60.847656 23.382812 61.429688 23.46875 62.007812 23.585938 C 62.585938 23.699219 63.15625 23.84375 63.722656 24.015625 C 64.285156 24.183594 64.839844 24.382812 65.386719 24.609375 C 65.929688 24.835938 66.460938 25.085938 66.980469 25.363281 C 67.503906 25.644531 68.007812 25.945312 68.5 26.273438 C 68.988281 26.601562 69.460938 26.953125 69.917969 27.328125 C 70.375 27.699219 70.808594 28.097656 71.226562 28.511719 C 71.644531 28.929688 72.039062 29.367188 72.414062 29.824219 C 72.789062 30.277344 73.136719 30.75 73.464844 31.242188 C 73.792969 31.730469 74.097656 32.238281 74.375 32.757812 C 74.652344 33.277344 74.90625 33.808594 75.128906 34.355469 C 75.355469 34.898438 75.554688 35.453125 75.726562 36.019531 C 75.898438 36.582031 76.039062 37.15625 76.15625 37.734375 C 76.269531 38.3125 76.355469 38.894531 76.414062 39.480469 C 76.472656 40.066406 76.5 40.65625 76.5 41.246094 Z M 76.5 41.246094 " fill-opacity="1" fill-rule="nonzero"/></g></svg>