<svg xmlns="http://www.w3.org/2000/svg" xmlns:xlink="http://www.w3.org/1999/xlink" width="120" zoomAndPan="magnify" viewBox="0 0 90 89.999999" height="120" preserveAspectRatio="xMidYMid meet" version="1.0"><defs><clipPath id="4b3d3a9eee"><path d="M 45 0 C 20.148438 0 0 20.148438 0 45 C 0 69.851562 20.148438 90 45 90 C 69.851562 90 90 69.851562 90 45 C 90 20.148438 69.851562 0 45 0 Z M 45 0 " clip-rule="nonzero"/></clipPath><clipPath id="6b66697b96"><path d="M 31 39 L 85.597656 39 L 85.597656 51 L 31 51 Z M 31 39 " clip-rule="nonzero"/></clipPath><clipPath id="00f4fd8ac4"><path d="M 8 31.050781 L 24 31.050781 L 24 58.800781 L 8 58.800781 Z M 8 31.050781 " clip-rule="nonzero"/></clipPath><clipPath id="1cfba02129"><path d="M 4.597656 40 L 8 40 L 8 51 L 4.597656 51 Z M 4.597656 40 " clip-rule="nonzero"/></clipPath></defs><g clip-path="url(#4b3d3a9eee)"><rect x="-9" width="108" fill="#19376d" y="-9" height="107.999999" fill-opacity="1"/></g><g clip-path="url(#6b66697b96)"><path fill="#ffffff" d="M 58.835938 39.453125 C 59.128906 39.453125 59.40625 39.308594 59.621094 39.523438 C 59.691406 39.816406 59.621094 40.023438 59.621094 40.308594 L 59.621094 50.289062 C 59.359375 50.359375 59.097656 50.359375 58.835938 50.289062 L 58.835938 48.648438 C 58.195312 49.503906 57.339844 50.148438 56.347656 50.359375 C 55.136719 50.652344 53.710938 50.433594 52.714844 49.648438 C 52.070312 49.148438 51.570312 48.4375 51.214844 47.722656 C 50.71875 46.511719 50.859375 45.015625 51.570312 43.875 C 52.144531 42.945312 53.070312 42.234375 54.210938 42.019531 C 55.351562 41.726562 56.632812 41.949219 57.558594 42.589844 C 58.058594 42.882812 58.417969 43.304688 58.773438 43.730469 L 58.84375 39.453125 M 54.488281 42.734375 C 52.773438 43.089844 51.5625 44.871094 51.777344 46.582031 C 51.921875 47.796875 52.777344 48.792969 53.84375 49.363281 C 54.773438 49.71875 55.84375 49.789062 56.695312 49.292969 C 58.121094 48.722656 59.050781 47.082031 58.765625 45.511719 C 58.621094 44.445312 57.90625 43.515625 56.980469 43.027344 C 56.199219 42.671875 55.34375 42.597656 54.496094 42.734375 Z M 85.0625 39.453125 C 85.277344 39.238281 85.5625 39.382812 85.847656 39.453125 L 85.847656 50.289062 C 85.585938 50.363281 85.324219 50.363281 85.0625 50.289062 L 85.0625 48.660156 C 84.351562 49.65625 83.140625 50.441406 81.855469 50.511719 C 81 50.582031 80.144531 50.371094 79.429688 49.941406 C 78.363281 49.371094 77.578125 48.300781 77.292969 47.089844 C 77.078125 46.019531 77.222656 44.878906 77.863281 43.953125 C 78.503906 42.957031 79.5 42.242188 80.644531 42.027344 C 81.785156 41.816406 82.996094 42.027344 83.921875 42.671875 C 84.351562 42.964844 84.707031 43.3125 85.0625 43.738281 L 85.0625 39.457031 M 80.710938 42.734375 C 79.785156 42.945312 78.929688 43.589844 78.429688 44.445312 C 78 45.15625 77.929688 46.011719 78.074219 46.796875 C 78.285156 47.9375 79.140625 48.9375 80.28125 49.363281 C 80.996094 49.65625 81.777344 49.65625 82.5625 49.433594 C 83.277344 49.140625 83.992188 48.722656 84.417969 48.007812 C 84.988281 47.222656 85.203125 46.152344 84.917969 45.226562 C 84.703125 44.160156 83.917969 43.304688 82.992188 42.804688 C 82.28125 42.589844 81.425781 42.589844 80.710938 42.734375 Z M 75.152344 39.523438 C 75.578125 39.382812 76.007812 39.953125 75.722656 40.308594 C 75.578125 40.601562 75.082031 40.664062 74.867188 40.378906 C 74.574219 40.085938 74.796875 39.59375 75.160156 39.523438 Z M 35.648438 41.878906 C 36.574219 41.734375 37.574219 41.804688 38.359375 42.304688 C 39 42.597656 39.5 43.089844 39.996094 43.660156 L 39.996094 41.949219 L 40.710938 41.949219 C 40.78125 44.726562 40.710938 47.507812 40.710938 50.289062 C 40.496094 50.359375 40.210938 50.359375 39.925781 50.289062 L 39.925781 48.648438 C 39.210938 49.507812 38.355469 50.21875 37.21875 50.363281 C 36.289062 50.574219 35.292969 50.433594 34.367188 50.003906 C 33.082031 49.363281 32.226562 48.152344 32.011719 46.796875 C 31.941406 46.011719 32.011719 45.160156 32.367188 44.445312 C 33.011719 43.089844 34.292969 42.164062 35.648438 41.878906 M 35.71875 42.734375 C 34.507812 43.027344 33.4375 43.945312 33.082031 45.222656 C 32.652344 46.648438 33.296875 48.292969 34.507812 49.070312 C 35.363281 49.640625 36.433594 49.785156 37.359375 49.570312 C 38.5 49.214844 39.425781 48.359375 39.785156 47.21875 C 40.28125 45.863281 39.710938 44.222656 38.5 43.367188 C 37.714844 42.726562 36.648438 42.511719 35.722656 42.726562 Z M 43.789062 42.660156 C 45.144531 41.519531 47.285156 41.519531 48.636719 42.660156 C 49.492188 43.371094 50.066406 44.511719 50.066406 45.652344 L 50.066406 50.289062 C 49.773438 50.359375 49.492188 50.359375 49.28125 50.289062 L 49.28125 45.511719 C 49.210938 43.945312 47.78125 42.589844 46.207031 42.660156 C 44.640625 42.660156 43.285156 44.015625 43.214844 45.585938 L 43.214844 50.289062 C 42.953125 50.363281 42.691406 50.363281 42.429688 50.289062 L 42.429688 45.804688 C 42.359375 44.59375 42.859375 43.453125 43.785156 42.667969 Z M 61.042969 45.441406 C 61.042969 43.441406 62.894531 41.660156 64.820312 41.804688 C 64.820312 42.015625 64.890625 42.304688 64.820312 42.515625 C 64.605469 42.660156 64.394531 42.589844 64.179688 42.660156 C 63.324219 42.875 62.539062 43.445312 62.113281 44.296875 C 61.753906 45.082031 61.820312 45.9375 61.820312 46.785156 L 61.820312 50.277344 C 61.605469 50.421875 61.320312 50.347656 61.035156 50.347656 L 61.035156 45.441406 Z M 68.171875 41.945312 C 69.167969 41.734375 70.3125 41.875 71.167969 42.445312 C 72.234375 43.085938 73.089844 44.15625 73.304688 45.441406 C 73.449219 46.222656 73.375 47.078125 73.011719 47.863281 C 72.441406 49.289062 71.015625 50.351562 69.519531 50.503906 C 68.523438 50.574219 67.453125 50.359375 66.597656 49.71875 C 65.640625 49.050781 65.046875 48.148438 64.8125 47.007812 C 64.601562 45.941406 64.8125 44.871094 65.386719 43.9375 C 65.957031 42.867188 67.023438 42.15625 68.164062 41.941406 M 68.308594 42.722656 C 66.59375 43.082031 65.3125 44.863281 65.597656 46.644531 C 65.742188 47.570312 66.167969 48.355469 66.953125 48.925781 C 67.738281 49.640625 68.949219 49.855469 70.027344 49.570312 C 70.667969 49.355469 71.308594 49 71.738281 48.5 C 72.378906 47.859375 72.664062 46.929688 72.664062 46.011719 C 72.59375 44.800781 71.878906 43.660156 70.8125 43.089844 C 70.027344 42.660156 69.097656 42.589844 68.324219 42.734375 Z M 74.875 42.152344 C 75.085938 41.941406 75.445312 42.011719 75.730469 42.082031 L 75.730469 49.925781 C 75.730469 50.28125 75.230469 50.066406 75.015625 50.136719 C 74.925781 50.132812 74.878906 50.085938 74.875 49.996094 Z M 74.875 42.152344 " fill-opacity="1" fill-rule="nonzero"/></g><g clip-path="url(#00f4fd8ac4)"><path fill="#a4c639" d="M 11.398438 31.410156 L 12.632812 33.613281 C 10.34375 34.757812 8.753906 36.960938 8.753906 39.519531 L 23.566406 39.519531 C 23.566406 36.960938 21.976562 34.757812 19.6875 33.613281 L 20.921875 31.410156 C 20.921875 31.410156 21.007812 31.320312 20.832031 31.234375 C 20.746094 31.144531 20.65625 31.320312 20.65625 31.320312 L 19.335938 33.523438 C 18.296875 33.058594 17.210938 32.824219 16.074219 32.820312 C 14.9375 32.824219 13.851562 33.058594 12.8125 33.523438 L 11.496094 31.320312 C 11.496094 31.320312 11.410156 31.234375 11.320312 31.234375 C 11.320312 31.320312 11.410156 31.410156 11.410156 31.410156 Z M 12.632812 35.726562 C 12.824219 35.742188 12.984375 35.816406 13.117188 35.949219 C 13.253906 36.082031 13.324219 36.242188 13.339844 36.433594 C 13.324219 36.621094 13.253906 36.785156 13.117188 36.917969 C 12.984375 37.050781 12.824219 37.125 12.632812 37.136719 C 12.4375 37.140625 12.269531 37.074219 12.132812 36.933594 C 11.992188 36.796875 11.925781 36.628906 11.929688 36.433594 C 11.925781 36.238281 11.992188 36.070312 12.132812 35.929688 C 12.269531 35.792969 12.4375 35.726562 12.632812 35.726562 Z M 19.6875 35.726562 C 19.875 35.742188 20.035156 35.816406 20.171875 35.949219 C 20.304688 36.082031 20.378906 36.242188 20.390625 36.433594 C 20.378906 36.621094 20.304688 36.785156 20.171875 36.917969 C 20.035156 37.050781 19.875 37.125 19.6875 37.136719 C 19.488281 37.140625 19.324219 37.074219 19.183594 36.933594 C 19.046875 36.796875 18.976562 36.628906 18.980469 36.433594 C 18.976562 36.238281 19.046875 36.070312 19.183594 35.929688 C 19.324219 35.792969 19.488281 35.726562 19.6875 35.726562 Z M 8.667969 40.390625 L 8.667969 51.675781 C 8.667969 52.203125 9.375 52.996094 9.902344 52.996094 L 11.65625 52.996094 L 11.65625 56.875 C 11.65625 57.84375 12.363281 58.632812 13.246094 58.632812 C 14.128906 58.632812 14.832031 57.839844 14.832031 56.875 L 14.832031 53.003906 L 17.390625 53.003906 L 17.390625 56.882812 C 17.390625 57.851562 18.09375 58.636719 18.976562 58.636719 C 19.859375 58.636719 20.5625 57.84375 20.5625 56.882812 L 20.5625 53.003906 L 22.320312 53.003906 C 22.847656 53.003906 23.554688 52.296875 23.554688 51.679688 L 23.554688 40.390625 Z M 8.667969 40.390625 " fill-opacity="1" fill-rule="nonzero"/></g><g clip-path="url(#1cfba02129)"><path fill="#a4c639" d="M 6.199219 40.136719 C 7.082031 40.136719 7.789062 40.929688 7.789062 41.890625 L 7.789062 48.589844 C 7.789062 49.558594 7.082031 50.347656 6.199219 50.347656 C 5.316406 50.347656 4.613281 49.554688 4.613281 48.589844 L 4.613281 41.898438 C 4.613281 40.929688 5.316406 40.144531 6.199219 40.144531 Z M 6.199219 40.136719 " fill-opacity="1" fill-rule="nonzero"/></g><path fill="#a4c639" d="M 26.121094 40.136719 C 27.003906 40.136719 27.710938 40.929688 27.710938 41.890625 L 27.710938 48.589844 C 27.710938 49.558594 27.003906 50.347656 26.121094 50.347656 C 25.238281 50.347656 24.535156 49.554688 24.535156 48.589844 L 24.535156 41.898438 C 24.535156 40.929688 25.238281 40.144531 26.121094 40.144531 Z M 26.121094 40.136719 " fill-opacity="1" fill-rule="nonzero"/></svg>