<svg xmlns="http://www.w3.org/2000/svg" xmlns:xlink="http://www.w3.org/1999/xlink" width="120" zoomAndPan="magnify" viewBox="0 0 90 89.999999" height="120" preserveAspectRatio="xMidYMid meet" version="1.0"><defs><clipPath id="303be90bd9"><path d="M 42 47 L 76.648438 47 L 76.648438 70.273438 L 42 70.273438 Z M 42 47 " clip-rule="nonzero"/></clipPath><clipPath id="c83ef87332"><path d="M 23.398438 49 L 41 49 L 41 63 L 23.398438 63 Z M 23.398438 49 " clip-rule="nonzero"/></clipPath><clipPath id="825c1a57a2"><path d="M 23.398438 37 L 62 37 L 62 52 L 23.398438 52 Z M 23.398438 37 " clip-rule="nonzero"/></clipPath><clipPath id="74f2f79c7c"><path d="M 23.398438 17.023438 L 62 17.023438 L 62 27 L 23.398438 27 Z M 23.398438 17.023438 " clip-rule="nonzero"/></clipPath><clipPath id="fbc169bc29"><path d="M 23.398438 24 L 62 24 L 62 39 L 23.398438 39 Z M 23.398438 24 " clip-rule="nonzero"/></clipPath></defs><path fill="#576cbc" d="M 90.003906 44.988281 C 90.003906 46.464844 89.929688 47.933594 89.785156 49.402344 C 89.640625 50.871094 89.425781 52.328125 89.136719 53.773438 C 88.851562 55.21875 88.492188 56.648438 88.0625 58.058594 C 87.636719 59.46875 87.140625 60.855469 86.574219 62.21875 C 86.011719 63.578125 85.382812 64.910156 84.6875 66.210938 C 83.992188 67.511719 83.234375 68.773438 82.414062 70 C 81.597656 71.226562 80.71875 72.410156 79.785156 73.550781 C 78.847656 74.6875 77.859375 75.78125 76.816406 76.820312 C 75.773438 77.863281 74.683594 78.855469 73.542969 79.789062 C 72.402344 80.722656 71.222656 81.601562 69.996094 82.421875 C 68.769531 83.238281 67.507812 83.996094 66.207031 84.691406 C 64.90625 85.386719 63.574219 86.015625 62.210938 86.582031 C 60.851562 87.144531 59.464844 87.640625 58.050781 88.070312 C 56.640625 88.496094 55.214844 88.855469 53.765625 89.144531 C 52.320312 89.429688 50.863281 89.644531 49.398438 89.789062 C 47.929688 89.933594 46.460938 90.007812 44.984375 90.007812 C 43.511719 90.007812 42.039062 89.933594 40.570312 89.789062 C 39.105469 89.644531 37.648438 89.429688 36.203125 89.144531 C 34.757812 88.855469 33.328125 88.496094 31.917969 88.070312 C 30.503906 87.640625 29.121094 87.144531 27.757812 86.582031 C 26.394531 86.015625 25.0625 85.386719 23.761719 84.691406 C 22.464844 83.996094 21.199219 83.238281 19.972656 82.421875 C 18.75 81.601562 17.566406 80.722656 16.425781 79.789062 C 15.285156 78.855469 14.195312 77.863281 13.152344 76.820312 C 12.109375 75.78125 11.121094 74.6875 10.183594 73.550781 C 9.25 72.410156 8.371094 71.226562 7.554688 70 C 6.734375 68.773438 5.976562 67.511719 5.28125 66.210938 C 4.585938 64.910156 3.957031 63.578125 3.394531 62.21875 C 2.828125 60.855469 2.332031 59.46875 1.90625 58.058594 C 1.476562 56.648438 1.121094 55.21875 0.832031 53.773438 C 0.542969 52.328125 0.328125 50.871094 0.183594 49.402344 C 0.0390625 47.933594 -0.03125 46.464844 -0.03125 44.988281 C -0.03125 43.515625 0.0390625 42.042969 0.183594 40.578125 C 0.328125 39.109375 0.542969 37.652344 0.832031 36.207031 C 1.121094 34.761719 1.476562 33.332031 1.90625 31.921875 C 2.332031 30.511719 2.828125 29.125 3.394531 27.761719 C 3.957031 26.398438 4.585938 25.070312 5.28125 23.769531 C 5.976562 22.46875 6.734375 21.207031 7.554688 19.980469 C 8.371094 18.753906 9.25 17.570312 10.183594 16.429688 C 11.121094 15.292969 12.109375 14.199219 13.152344 13.15625 C 14.195312 12.113281 15.285156 11.125 16.425781 10.191406 C 17.566406 9.253906 18.75 8.378906 19.972656 7.558594 C 21.199219 6.738281 22.464844 5.984375 23.761719 5.289062 C 25.0625 4.59375 26.394531 3.964844 27.757812 3.398438 C 29.121094 2.835938 30.503906 2.339844 31.917969 1.910156 C 33.328125 1.484375 34.757812 1.125 36.203125 0.835938 C 37.648438 0.550781 39.105469 0.332031 40.570312 0.1875 C 42.039062 0.0429688 43.511719 -0.0273438 44.984375 -0.0273438 C 46.460938 -0.0273438 47.929688 0.0429688 49.398438 0.1875 C 50.863281 0.332031 52.320312 0.550781 53.765625 0.835938 C 55.214844 1.125 56.640625 1.484375 58.050781 1.910156 C 59.464844 2.339844 60.851562 2.835938 62.210938 3.398438 C 63.574219 3.964844 64.90625 4.59375 66.207031 5.289062 C 67.507812 5.984375 68.769531 6.738281 69.996094 7.558594 C 71.222656 8.378906 72.402344 9.253906 73.542969 10.191406 C 74.683594 11.125 75.773438 12.113281 76.816406 13.15625 C 77.859375 14.199219 78.847656 15.292969 79.785156 16.429688 C 80.71875 17.570312 81.597656 18.753906 82.414062 19.980469 C 83.234375 21.207031 83.992188 22.46875 84.6875 23.769531 C 85.382812 25.070312 86.011719 26.398438 86.574219 27.761719 C 87.140625 29.125 87.636719 30.511719 88.0625 31.921875 C 88.492188 33.332031 88.851562 34.761719 89.136719 36.207031 C 89.425781 37.652344 89.640625 39.109375 89.785156 40.578125 C 89.929688 42.042969 90.003906 43.515625 90.003906 44.988281 Z M 90.003906 44.988281 " fill-opacity="1" fill-rule="nonzero"/><g clip-path="url(#303be90bd9)"><path fill="#000000" d="M 49.90625 59.625 C 47.820312 59.625 46.121094 57.929688 46.121094 55.839844 C 46.121094 53.75 47.820312 52.054688 49.90625 52.054688 C 51.996094 52.054688 53.695312 53.75 53.695312 55.839844 C 53.695312 56.363281 53.269531 56.785156 52.746094 56.785156 C 52.226562 56.785156 51.800781 56.363281 51.800781 55.839844 C 51.800781 54.796875 50.949219 53.945312 49.90625 53.945312 C 48.863281 53.945312 48.015625 54.796875 48.015625 55.839844 C 48.015625 56.882812 48.863281 57.734375 49.90625 57.734375 C 51.996094 57.734375 53.695312 59.429688 53.695312 61.519531 C 53.695312 63.609375 51.996094 65.308594 49.90625 65.308594 C 47.820312 65.308594 46.121094 63.609375 46.121094 61.519531 C 46.121094 61 46.546875 60.574219 47.066406 60.574219 C 47.589844 60.574219 48.015625 61 48.015625 61.519531 C 48.015625 62.5625 48.863281 63.414062 49.90625 63.414062 C 50.949219 63.414062 51.800781 62.5625 51.800781 61.519531 C 51.800781 60.476562 50.949219 59.625 49.90625 59.625 Z M 55.589844 55.839844 C 55.589844 53.75 57.285156 52.054688 59.375 52.054688 C 61.464844 52.054688 63.160156 53.75 63.160156 55.839844 L 63.160156 61.519531 C 63.160156 62.21875 62.957031 62.871094 62.625 63.433594 L 62.882812 63.691406 C 63.253906 64.0625 63.253906 64.660156 62.882812 65.03125 C 62.699219 65.214844 62.460938 65.308594 62.214844 65.308594 C 61.972656 65.308594 61.730469 65.214844 61.546875 65.03125 L 61.285156 64.769531 C 60.726562 65.105469 60.074219 65.308594 59.375 65.308594 C 57.285156 65.308594 55.589844 63.609375 55.589844 61.519531 Z M 65.054688 53 C 65.054688 52.476562 65.480469 52.054688 66 52.054688 C 66.523438 52.054688 66.949219 52.476562 66.949219 53 L 66.949219 63.414062 L 71.683594 63.414062 C 72.203125 63.414062 72.628906 63.839844 72.628906 64.359375 C 72.628906 64.882812 72.203125 65.308594 71.683594 65.308594 L 66 65.308594 C 65.480469 65.308594 65.054688 64.882812 65.054688 64.359375 Z M 43.28125 70.039062 L 75.46875 70.039062 C 75.992188 70.039062 76.414062 69.617188 76.414062 69.09375 L 76.414062 48.265625 C 76.414062 47.746094 75.992188 47.320312 75.46875 47.320312 L 43.28125 47.320312 C 42.757812 47.320312 42.335938 47.746094 42.335938 48.265625 L 42.335938 69.09375 C 42.335938 69.617188 42.757812 70.039062 43.28125 70.039062 " fill-opacity="1" fill-rule="nonzero"/></g><g clip-path="url(#c83ef87332)"><path fill="#000000" d="M 40.441406 62.429688 L 40.441406 52.972656 C 33.640625 52.792969 26.65625 51.601562 23.398438 49.324219 L 23.398438 57.734375 C 23.398438 59.550781 29.863281 62.140625 40.441406 62.429688 " fill-opacity="1" fill-rule="nonzero"/></g><g clip-path="url(#825c1a57a2)"><path fill="#000000" d="M 23.398438 46.371094 C 23.398438 48.1875 29.863281 50.785156 40.441406 51.074219 L 40.441406 48.265625 C 40.441406 46.699219 41.710938 45.425781 43.28125 45.425781 L 61.269531 45.425781 L 61.269531 37 C 57.792969 39.433594 50.03125 40.691406 42.335938 40.691406 C 34.636719 40.691406 26.878906 39.433594 23.398438 37 L 23.398438 46.371094 " fill-opacity="1" fill-rule="nonzero"/></g><g clip-path="url(#74f2f79c7c)"><path fill="#000000" d="M 61.269531 21.757812 C 61.269531 19.828125 53.894531 17.023438 42.335938 17.023438 C 30.777344 17.023438 23.398438 19.828125 23.398438 21.757812 C 23.398438 23.6875 30.777344 26.492188 42.335938 26.492188 C 53.894531 26.492188 61.269531 23.6875 61.269531 21.757812 " fill-opacity="1" fill-rule="nonzero"/></g><g clip-path="url(#fbc169bc29)"><path fill="#000000" d="M 23.398438 34.066406 C 23.398438 35.996094 30.777344 38.800781 42.335938 38.800781 C 53.894531 38.800781 61.269531 35.996094 61.269531 34.066406 L 61.269531 24.691406 C 57.792969 27.125 50.03125 28.386719 42.335938 28.386719 C 34.636719 28.386719 26.878906 27.125 23.398438 24.691406 L 23.398438 34.066406 " fill-opacity="1" fill-rule="nonzero"/></g><path fill="#000000" d="M 59.375 63.414062 C 59.542969 63.414062 59.703125 63.382812 59.859375 63.34375 L 59.652344 63.136719 C 59.28125 62.765625 59.28125 62.167969 59.652344 61.796875 C 60.023438 61.429688 60.621094 61.429688 60.992188 61.796875 L 61.199219 62.003906 C 61.238281 61.847656 61.269531 61.6875 61.269531 61.519531 L 61.269531 55.839844 C 61.269531 54.796875 60.417969 53.945312 59.375 53.945312 C 58.332031 53.945312 57.480469 54.796875 57.480469 55.839844 L 57.480469 61.519531 C 57.480469 62.5625 58.332031 63.414062 59.375 63.414062 " fill-opacity="1" fill-rule="nonzero"/></svg>